Coordinates
version=1
nRows=15
nColumns=23
inDegrees=yes

Units are S.I. units (second, meters, Newtons, ...)
If the header above contains a line with 'inDegrees', this indicates whether rotational values are in degrees (yes) or radians (no).

endheader
time	pelvis_tilt	pelvis_list	pelvis_rotation	pelvis_tx	pelvis_ty	pelvis_tz	hip_flexion_r	hip_adduction_r	hip_rotation_r	knee_angle_r	knee_angle_r_beta	ankle_angle_r	subtalar_angle_r	mtp_angle_r	hip_flexion_l	hip_adduction_l	hip_rotation_l	knee_angle_l	knee_angle_l_beta	ankle_angle_l	subtalar_angle_l	mtp_angle_l
     15.00000000	      0.01140421	     -3.02711566	     -1.08141250	      2.21700441	      0.97798888	      1.01223031	     -7.93988514	      4.95705453	     -6.24387692	     25.96618084	      0.45319535	      8.18004934	     -4.98720358	      0.00000000	     28.93804690	     -5.07316225	     -1.60985078	     60.71943672	      1.05975409	      3.80914523	    -16.11006045	      0.00000000
     15.00666667	     -0.41603031	     -2.37863979	     -0.83796556	      2.21796025	      0.98128025	      1.01154366	     -8.64367119	      4.17788412	     -6.86310263	     25.29070699	      0.44140611	      5.89705238	     -5.03181307	      0.00000000	     29.10681086	     -4.21132732	     -2.07842718	     57.15136941	      0.99747957	      4.26459273	    -15.12065909	      0.00000000
     15.01333333	     -0.38717133	     -1.89167251	     -0.50260612	      2.21919076	      0.98509019	      1.01075839	     -9.97736937	      3.72018854	     -7.11998539	     24.30765764	      0.42424866	      3.51305922	     -5.56804495	      0.00000000	     28.62117225	     -3.46090281	     -2.42984350	     53.37777377	      0.93161790	      4.83254079	    -13.89166721	      0.00000000
     15.02000000	     -0.74162022	     -1.34350115	     -0.22503364	      2.22026971	      0.98807449	      1.00993072	    -10.58496805	      3.06331622	     -7.74408625	     23.91076398	      0.41732156	      1.26815693	     -5.72992706	      0.00000000	     28.47716058	     -2.64058603	     -2.82381032	     49.53134624	      0.86448507	      5.39553540	    -12.54746711	      0.00000000
     15.02666667	     -0.98868766	     -0.92609249	      0.04898354	      2.22143571	      0.99090397	      1.00899511	    -11.24797932	      2.55379950	     -8.29356182	     23.60443665	      0.41197514	     -1.04447106	     -6.03971885	      0.00000000	     28.11696806	     -1.95240095	     -3.20343312	     45.60543009	      0.79596491	      6.01461348	    -10.94613415	      0.00000000
     15.03333333	     -1.36081631	     -0.51871848	      0.33265200	      2.22254362	      0.99320207	      1.00797496	    -11.57705179	      2.00818433	     -8.95301269	     23.67611688	      0.41322619	     -3.20047552	     -6.38006066	      0.00000000	     27.82485741	     -1.19915582	     -3.46182696	     41.65244968	      0.72697239	      6.68021995	     -9.26572752	      0.00000000
     15.04000000	     -1.75054224	     -0.18270302	      0.61430179	      2.22373699	      0.99509285	      1.00684193	    -11.76478437	      1.50138948	     -9.65698944	     23.97872891	      0.41850777	     -5.21500473	     -6.75495537	      0.00000000	     27.46288258	     -0.47512990	     -3.60469446	     37.68891376	      0.65779564	      7.38194669	     -7.57442993	      0.00000000
     15.04666667	     -2.01449426	      0.08628073	      0.88514005	      2.22501703	      0.99674712	      1.00564433	    -12.01213534	      1.06742559	    -10.26340368	     24.41790623	      0.42617286	     -7.16947897	     -7.18243781	      0.00000000	     26.89303167	      0.19808924	     -3.67584708	     33.76305352	      0.58927645	      8.09012608	     -5.83713404	      0.00000000
     15.05333333	     -2.48785869	      0.19403546	      1.19191843	      2.22623899	      0.99760342	      1.00431839	    -11.86218713	      0.77051729	    -10.90645031	     25.17388288	      0.43936714	     -9.01410625	     -7.62543156	      0.00000000	     26.57422295	      0.78878034	     -3.42094538	     30.06136034	      0.52466972	      8.80623638	     -4.19295761	      0.00000000
     15.06000000	     -2.60092606	      0.37702455	      1.41561044	      2.22735917	      0.99840929	      1.00308831	    -11.93888499	      0.35194063	    -11.46203527	     26.23805265	      0.45794041	    -10.64744139	     -8.24990505	      0.00000000	     25.79078900	      1.41776657	     -3.15651629	     26.45144762	      0.46166485	      9.38007409	     -2.72756314	      0.00000000
     15.06666667	     -2.70516978	      0.49321430	      1.66362087	      2.22856887	      0.99881898	      1.00182587	    -11.95154036	      0.02662125	    -11.90525487	     27.42896407	      0.47872573	    -12.04002198	     -8.81131935	      0.00000000	     24.95361807	      2.02831310	     -2.54694737	     23.00682079	      0.40154477	      9.77248152	     -1.84868478	      0.00000000
     15.07333333	     -2.87577539	      0.59690686	      1.91372943	      2.22960872	      0.99855432	      1.00060961	    -11.70409899	     -0.32010770	    -12.31758126	     28.98983198	      0.50596802	    -13.17683813	     -9.45412894	      0.00000000	     24.25934752	      2.58783241	     -1.83779860	     19.95660863	      0.34830853	     10.07149464	     -1.19782469	      0.00000000
     15.08000000	     -3.02259851	      0.65237592	      2.19551170	      2.23047851	      0.99774155	      0.99940583	    -11.33650190	     -0.59866001	    -12.60132576	     30.79956328	      0.53755379	    -14.11024770	    -10.23433790	      0.00000000	     23.73791074	      3.00279406	     -1.33250890	     17.57409810	      0.30672587	     10.44230383	     -0.23690697	      0.00000000
     15.08666667	     -3.09100303	      0.76640573	      2.44242318	      2.23123104	      0.99656542	      0.99833671	    -10.90756521	     -0.93136472	    -12.72389399	     32.87908975	      0.57384837	    -14.73332297	    -10.99851078	      0.00000000	     23.18815955	      3.42274125	     -0.85433925	     15.60575110	      0.27237174	     10.57176285	      0.29119343	      0.00000000
     15.09333333	     -3.17001479	      0.96540677	      2.70204170	      2.23169085	      0.99494708	      0.99734895	    -10.27942968	     -1.37493403	    -12.79748621	     35.30148553	      0.61612715	    -14.95819498	    -11.53315988	      0.00000000	     22.63959691	      3.98106478	      0.10683673	     13.90047245	      0.24260901	     10.15889409	     -0.45889219	      0.00000000
